<?xml version="1.0" encoding="utf-8"?>
<!-- Generator: Adobe Illustrator 22.1.0, SVG Export Plug-In . SVG Version: 6.00 Build 0)  -->
<svg version="1.1" id="Layer_1" xmlns="http://www.w3.org/2000/svg" xmlns:xlink="http://www.w3.org/1999/xlink" x="0px" y="0px"
	 viewBox="0 0 5000 1746" style="enable-background:new 0 0 5000 1746;" xml:space="preserve">
<style type="text/css">
	.st0{fill:#FFFFFF;stroke:#FFFFFF;stroke-width:0.2;stroke-miterlimit:10;}
	.st1{fill:#FFFFFF;}
	.st2{fill:url(#Path_2808_1_);}
	.st3{fill:url(#Path_2809_1_);}
	.st4{fill:url(#Path_2810_1_);}
	.st5{fill:url(#Path_2811_1_);}
	.st6{opacity:0.2;enable-background:new    ;}
	.st7{opacity:0.12;enable-background:new    ;}
	.st8{opacity:0.25;fill:#FFFFFF;enable-background:new    ;}
</style>
<g id="Group_3520">
	<g id="Group_3514">
		<path id="Path_2798" d="M4717.7,1582.7H282.3c-97,1-176.4-76.8-177.4-173.8c0-1.2,0-2.4,0-3.6V340.8c-1-97,76.9-176.4,173.8-177.4
			c1.2,0,2.4,0,3.6,0h4435.4c97-1,176.4,76.8,177.4,173.8c0,1.2,0,2.4,0,3.6v1064.5c1,97-76.9,176.4-173.8,177.4
			C4720.1,1582.7,4718.9,1582.7,4717.7,1582.7z"/>
	</g>
	<g id="Group_3517">
		<path id="Path_2800" class="st0" d="M1786.8,525.3c1.6,26-7.3,51.6-24.8,71c-42.8,43.1-112.4,43.4-155.6,0.6
			c-20.9-20.8-32.6-49.1-32.5-78.6c-0.5-60.2,47.9-109.5,108.1-110c0.6,0,1.3,0,1.9,0c14.8,0.2,29.4,3.8,42.6,10.6
			c12.7,5.3,23.7,13.9,31.9,24.8l-17.7,17.7c-13.6-17.2-34.9-26.5-56.8-24.8c-21.7-0.9-42.7,8.3-56.8,24.8
			c-17.3,15.1-26.5,37.4-24.8,60.3c-1.6,22.9,7.6,45.2,24.8,60.3c15.5,14.6,35.5,23.4,56.8,24.8c22.8,1,44.8-8.1,60.3-24.8
			c11.5-11.2,17.9-26.6,17.7-42.6h-78.1v-28.4h102.9V525.3L1786.8,525.3z"/>
		<path id="Path_2801" class="st0" d="M1950,436.6h-95.8V504h88.7v24.8h-88.7v67.4h95.8v28.4h-124.2V411.7H1950V436.6z"/>
		<path id="Path_2802" class="st0" d="M2067.1,624.6h-28.4V436.6h-60.3v-24.8h149v24.8h-60.3V624.6z"/>
		<path id="Path_2803" class="st0" d="M2230.3,624.6V411.7h28.4v212.9H2230.3z"/>
		<path id="Path_2804" class="st0" d="M2379.4,624.6H2351V436.6h-60.3v-24.8h145.5v24.8h-60.3v188.1H2379.4z"/>
		<path id="Path_2805" class="st0" d="M2716.4,596.2c-42.8,43.1-112.4,43.4-155.6,0.6c-20.9-20.8-32.6-49.1-32.5-78.6
			c0-60.8,49.3-110,110-110s110,49.2,110,110l0,0C2749.2,547.5,2737.6,575.9,2716.4,596.2L2716.4,596.2z M2581.6,578.5
			c15.1,15.2,35.4,24.1,56.8,24.8c21.7,0.9,42.7-8.3,56.8-24.8c15.9-16,24.8-37.7,24.8-60.3c1.6-22.9-7.6-45.2-24.8-60.3
			c-15.1-15.2-35.4-24.1-56.8-24.8c-21.7-0.9-42.7,8.3-56.8,24.8c-15.9,16-24.8,37.7-24.8,60.3
			C2555.1,541.1,2564.3,563.4,2581.6,578.5z"/>
		<path id="Path_2806" class="st0" d="M2787.4,624.6V411.7h31.9l102.9,166.8V411.7h28.4v212.9h-28.4l-110-173.9v173.9H2787.4z"/>
	</g>
	<path id="Path_2807" class="st1" d="M2521.3,936.9c-82.4-1.8-150.7,63.5-152.6,145.9c-0.1,2.2-0.1,4.4,0,6.7
		c-0.6,83.6,66.7,151.9,150.3,152.6c0.7,0,1.5,0,2.3,0c82.4,1.8,150.7-63.5,152.6-145.9c0.1-2.2,0.1-4.4,0-6.7
		c3-81.3-60.5-149.6-141.7-152.6C2528.5,936.7,2524.9,936.7,2521.3,936.9z M2521.3,1178.2c-51-4-89-48.6-85-99.5
		c3.6-45.4,39.6-81.4,85-85c47.5,0.3,85.7,39,85.4,86.5c0,1.9-0.1,3.8-0.2,5.8c2.3,48.6-35.2,89.9-83.7,92.2
		C2522.2,1178.1,2521.8,1178.1,2521.3,1178.2L2521.3,1178.2z M2191.3,936.9c-82.4-1.8-150.7,63.5-152.6,145.9
		c-0.1,2.2-0.1,4.4,0,6.7c-0.6,83.6,66.7,151.9,150.3,152.6c0.7,0,1.5,0,2.3,0c82.4,1.8,150.7-63.5,152.6-145.9
		c0.1-2.2,0.1-4.4,0-6.7c3-81.3-60.5-149.6-141.7-152.6C2198.5,936.7,2194.9,936.7,2191.3,936.9z M2191.3,1178.2
		c-51-4-89-48.6-85-99.5c3.6-45.4,39.6-81.4,85-85c47.5,0.3,85.7,39,85.4,86.5c0,1.9-0.1,3.8-0.2,5.8c2.3,48.6-35.2,89.9-83.7,92.2
		C2192.3,1178.1,2191.8,1178.1,2191.3,1178.2L2191.3,1178.2z M1797.4,983v63.9H1950c-2.2,30.4-14.7,59.2-35.5,81.6
		c-30.9,31-73.3,47.7-117.1,46.1c-91.2,0.9-165.9-72.3-166.8-163.6c0-2.3,0-4.5,0.1-6.8c-1.6-92.4,72-168.7,164.4-170.3
		c0.8,0,1.6,0,2.4,0c43.4,0.4,85.1,16.8,117.1,46.1l46.1-46.1c-42.8-41.4-100.1-64.3-159.7-63.9c-129.6,0.8-234.9,104.6-237.7,234.2
		c2.8,129.5,108.2,233.3,237.7,234.2c61.8,3.4,121.9-21.4,163.2-67.4c37.5-40.5,57.8-93.9,56.8-149c0.7-13.1-0.5-26.3-3.6-39
		L1797.4,983z M3408.4,1032.7c-17.9-55.9-69.1-94.3-127.7-95.8c-78.9,0.4-142.6,64.7-142.3,143.6c0,3,0.1,6,0.3,9
		c-2.3,82,62.4,150.3,144.4,152.5c1.6,0,3.1,0.1,4.7,0.1c50.3,0.5,97.2-25,124.2-67.4l-49.7-35.5c-15.5,26.4-43.9,42.6-74.5,42.6
		c-32,1.6-61.7-16.7-74.5-46.1l202.3-85.2L3408.4,1032.7z M3202.6,1082.3c-1.5-45.6,32.7-84.4,78.1-88.7
		c23.4-0.8,45.3,11.5,56.8,31.9L3202.6,1082.3z M3035.8,1227.8h67.4V784.3h-67.4V1227.8z M2929.3,968.8
		c-21.4-22.1-50.8-34.9-81.6-35.5c-81.5,3.8-145.6,71-145.5,152.6c-1.2,81.1,63.6,147.8,144.8,149c0.2,0,0.5,0,0.7,0
		c30,0.2,58.5-12.7,78.1-35.5h3.6v21.3c4.5,44.3-27.8,83.9-72.1,88.4c-36.9,3.7-71.5-18.1-84-52.9l-56.8,24.8
		c23.1,53.9,76.2,88.8,134.8,88.7c78.1,0,141.9-46.1,141.9-156.1V944h-63.9L2929.3,968.8L2929.3,968.8z M2851.3,1178.1
		c-51-4-89-48.6-85-99.5c3.6-45.4,39.6-81.4,85-85c47.1,1.9,83.7,41.7,81.8,88.8c0,1.2-0.1,2.3-0.2,3.5c3.8,47-31.1,88.2-78.1,92
		C2853.6,1178,2852.4,1178.1,2851.3,1178.1L2851.3,1178.1z M3717.1,784.3h-159.7v443.5h67.4v-166.8h92.3
		c76.4,0,138.4-62,138.4-138.4C3855.4,846.2,3793.5,784.3,3717.1,784.3z M3720.6,997.2h-95.8V844.6h95.8c41.8,0,76.2,32.8,78.1,74.5
		C3797,961.5,3763,995.5,3720.6,997.2z M4128.7,933.3c-49.2-3.9-95.8,22.9-117.1,67.4l60.3,24.8c12-21.6,35.7-34.1,60.3-31.9
		c34.9-2.6,65.9,22.2,71,56.8v3.6c-20.6-11.5-43.8-17.6-67.4-17.7c-63.9,0-127.7,35.5-127.7,99.4c2.4,57.4,50.9,101.9,108.3,99.4
		c0.6,0,1.1-0.1,1.7-0.1c33.8,1.1,65.8-14.9,85.2-42.6h3.6v35.5h63.9v-170.3C4265.2,984.3,4202,929,4128.7,933.3L4128.7,933.3z
		 M4121.6,1178.1c-21.3,0-53.2-10.6-53.2-39c0-35.5,39-46.1,71-46.1c20.9,0.1,41.6,4.9,60.3,14.2
		C4194,1146.5,4161.3,1176.3,4121.6,1178.1L4121.6,1178.1z M4494.1,943.9l-74.5,191.6h-3.6L4338,943.9h-71l117.1,269.7l-67.4,149
		h67.4l181-418.7H4494.1z M3898,1227.8h67.4V784.3H3898V1227.8z"/>
	<g id="Group_3519">
		
			<linearGradient id="Path_2808_1_" gradientUnits="userSpaceOnUse" x1="505.4468" y1="3056.0828" x2="459.6383" y2="3079.9275" gradientTransform="matrix(13.0107 0 0 -25 -4623.0215 78747.5)">
			<stop  offset="0" style="stop-color:#00A0FF"/>
			<stop  offset="7.000001e-03" style="stop-color:#00A1FF"/>
			<stop  offset="0.26" style="stop-color:#00BEFF"/>
			<stop  offset="0.512" style="stop-color:#00D2FF"/>
			<stop  offset="0.76" style="stop-color:#00DFFF"/>
			<stop  offset="1" style="stop-color:#00E3FF"/>
		</linearGradient>
		<path id="Path_2808" class="st2" d="M473.9,429.5c-10.9,14.1-16,31.9-14.2,49.7v784.2c-0.8,18.2,5.6,36.1,17.7,49.7l3.6,3.6
			l440-440v-7.1L473.9,429.5L473.9,429.5z"/>
		
			<linearGradient id="Path_2809_1_" gradientUnits="userSpaceOnUse" x1="582.5266" y1="2612.9663" x2="497.9353" y2="2612.9663" gradientTransform="matrix(10.1499 0 0 -8.5002 -4607.25 23085.623)">
			<stop  offset="0" style="stop-color:#FFE000"/>
			<stop  offset="0.409" style="stop-color:#FFBD00"/>
			<stop  offset="0.775" style="stop-color:#FFA500"/>
			<stop  offset="1" style="stop-color:#FF9C00"/>
		</linearGradient>
		<path id="Path_2809" class="st3" d="M1062.9,1025.6L917.5,880.1v-10.6L1062.9,724l3.6,3.6l173.9,99.4c49.7,28.4,49.7,74.5,0,102.9
			L1062.9,1025.6L1062.9,1025.6z"/>
		
			<linearGradient id="Path_2810_1_" gradientUnits="userSpaceOnUse" x1="502.897" y1="2616.7839" x2="454.5338" y2="2679.4114" gradientTransform="matrix(16.7002 0 0 -12.8884 -4626.3003 37895.5547)">
			<stop  offset="0" style="stop-color:#FF3A44"/>
			<stop  offset="1" style="stop-color:#C31162"/>
		</linearGradient>
		<path id="Path_2810" class="st4" d="M1066.5,1022l-149-149l-443.5,443.5c17.7,17.7,42.6,17.7,74.5,3.6L1066.5,1022"/>
		
			<linearGradient id="Path_2811_1_" gradientUnits="userSpaceOnUse" x1="86.7296" y1="2585.0938" x2="108.3387" y2="2613.196" gradientTransform="matrix(16.7002 0 0 -12.8389 -4626.3003 37715.5)">
			<stop  offset="0" style="stop-color:#32A071"/>
			<stop  offset="6.800000e-02" style="stop-color:#2DA771"/>
			<stop  offset="0.476" style="stop-color:#15CF74"/>
			<stop  offset="0.801" style="stop-color:#06E775"/>
			<stop  offset="1" style="stop-color:#00F076"/>
		</linearGradient>
		<path id="Path_2811" class="st5" d="M1066.5,724L548.4,429.5c-22.3-17.3-53.9-15.8-74.5,3.6l443.5,440L1066.5,724z"/>
		<g id="Group_3518">
			<path id="Path_2812" class="st6" d="M1062.9,1018.5l-514.5,291c-20.9,16.2-50.1,16.2-71,0l-3.6,3.6l3.6,3.6
				c20.9,16.2,50.1,16.2,71,0L1062.9,1018.5L1062.9,1018.5z"/>
			<path id="Path_2813" class="st7" d="M473.9,1309.4c-10.9-14.1-16-31.9-14.2-49.7v3.6c-0.8,18.2,5.6,36.1,17.7,49.7v-3.6H473.9z"
				/>
		</g>
		<path id="Path_2814" class="st7" d="M1240.4,919.1l-177.4,99.4l3.6,3.6l173.9-99.4c20.1-8.7,33.8-27.8,35.5-49.7
			C1275.8,890.8,1261.6,904.9,1240.4,919.1L1240.4,919.1z"/>
		<path id="Path_2815" class="st8" d="M548.4,433l691.9,393.9c21.3,14.2,35.5,28.4,35.5,46.1c-1.7-21.9-15.3-41-35.5-49.7
			L548.4,429.5c-49.7-28.4-88.7-7.1-88.7,49.7v3.6C459.7,429.5,498.8,404.6,548.4,433L548.4,433z"/>
	</g>
</g>
</svg>
